<svg width="1994" height="1994" xmlns="http://www.w3.org/2000/svg">
 <g>
  <title>Layer 1</title>
  <g>

   <g data-name="图层 20" id="svg_51">
    <circle fill="#fdba74" r="161.38" cy="161.38001" cx="161.38" class="cls-2"/>
    <circle fill="#fdba74" r="67.24" cy="1831.64001" cx="161.38" class="cls-2"/>
    <path fill="#2563eb" d="m275.69,614.58001c-26,0 -47.07,21.07 -47.07,47.07l0,946.75c0,37.14 -30.1,67.24 -67.24,67.24s-67.24,-30.1 -67.24,-67.24l0,-1178.06l-0.07,0c-0.72,-25.37 -21.46,-45.72 -47,-45.72s-46.28,20.36 -47,45.72l-0.02,0c0,0.19 0,0.38 -0.01,0.56c0,0.26 -0.04,0.52 -0.04,0.78c0,0.12 0.02,0.24 0.02,0.36c0,0.33 -0.02,0.65 -0.02,0.98l0,1398.61c0,89.13 72.25,161.38 161.38,161.38s161.38,-72.25 161.38,-161.38l0,-1169.98c0,-26 -21.07,-47.07 -47.07,-47.07zm-114.31,1284.3c-37.14,0 -67.24,-30.1 -67.24,-67.24s30.1,-67.24 67.24,-67.24s67.24,30.1 67.24,67.24s-30.1,67.24 -67.24,67.24z" class="cls-1"/>
    <path fill="#fdba74" d="m1082.31,1286.21001c-29.26,22.86 -71.52,17.67 -94.38,-11.59c-22.86,-29.26 -17.67,-71.52 11.59,-94.38s71.52,-17.67 94.38,11.59s17.67,71.52 -11.59,94.38z" class="cls-2"/>
    <path d="m1879.19,1504.37001c12.16,12.16 19.69,28.99 19.69,47.55l0,61.86c0,37.14 -30.1,67.24 -67.24,67.24s-67.24,-30.1 -67.24,-67.24l0,-61.86c0,-37.14 30.1,-67.24 67.24,-67.24c18.56,0 35.4,7.53 47.55,19.69z"/>
    <path fill="#2563eb" d="m1945.76,95.67001c-11.86,-11.86 -25.58,-21.87 -40.64,-29.59l-3.52,-1.75c-1.16,-0.56 -2.34,-1.13 -3.55,-1.67c-66.38,-30.39 -147.31,-12.59 -194.22,47.45l-667.81,854.74l-580.39,-742.87l-0.24,0.19c-8.63,-10.81 -21.89,-17.75 -36.82,-17.75c-25.98,0 -47.07,21.09 -47.07,47.07c0,10.79 3.68,20.66 9.76,28.59l-0.16,0.13l582.9,746.08c4.36,5.57 7.69,11.62 10.03,17.91c9.98,26.73 2.07,57.96 -21.62,76.47c-12.29,9.6 -26.87,14.26 -41.34,14.26c-2.45,0 -4.87,-0.13 -7.29,-0.38c-17.43,-1.91 -34.1,-10.57 -45.75,-25.47l-542.66,-694.57c-8.36,-13.1 -23,-21.81 -39.67,-21.81c-26.01,0 -47.07,21.09 -47.07,47.07c0,12.18 4.68,23.27 12.29,31.63l667.86,854.85c41.42,53.04 109.41,73.08 170.47,56.11c0.3,-0.11 0.62,-0.19 0.94,-0.27c1.29,-0.38 2.56,-0.75 3.85,-1.13c1.67,-0.54 3.34,-1.08 4.98,-1.64c1.43,-0.51 2.82,-1.02 4.25,-1.53c1.51,-0.56 3.01,-1.16 4.49,-1.8c1.1,-0.43 2.18,-0.89 3.25,-1.37c0.78,-0.32 1.56,-0.67 2.34,-1.05c0.97,-0.43 1.91,-0.89 2.85,-1.34c1.02,-0.48 2.04,-0.97 3.04,-1.51c20.47,-10.36 39.03,-25.28 54.09,-44.54l506.94,-648.85l105.54,-135.07c0.03,-0.05 0.05,-0.08 0.08,-0.13c1.8,-2.66 3.79,-5.19 5.94,-7.56c0,-0.03 0.03,-0.03 0.03,-0.05c12.32,-13.53 30.04,-22.03 49.79,-22.03c18.56,0 35.4,7.53 47.55,19.69c12.16,12.18 19.69,28.97 19.69,47.55l0,754.36c0,37.14 -30.1,67.24 -67.24,67.24s-67.24,-30.1 -67.24,-67.24l0,-560.79c0,-25.98 -21.09,-47.07 -47.07,-47.07s-47.07,21.09 -47.07,47.07l0,835.13c0,89.13 72.24,161.38 161.38,161.38s161.38,-72.24 161.38,-161.38l0,-1398.64c0,-44.57 -18.07,-84.91 -47.26,-114.12l-0.01,0zm-863.45,1190.54c-29.26,22.86 -71.52,17.67 -94.38,-11.59c-22.86,-29.26 -17.67,-71.52 11.59,-94.38s71.52,-17.67 94.38,11.59s17.67,71.52 -11.59,94.38zm816.57,327.57c0,37.14 -30.1,67.24 -67.24,67.24s-67.24,-30.1 -67.24,-67.24l0,-61.86c0,-37.14 30.1,-67.24 67.24,-67.24c18.56,0 35.4,7.53 47.55,19.69c12.16,12.16 19.69,28.99 19.69,47.55l0,61.86zm-315.49,-974.53l-351.32,449.65c-22.86,29.26 -65.12,34.45 -94.38,11.59c-29.26,-22.86 -34.45,-65.12 -11.59,-94.38l351.29,-449.65c22.89,-29.26 65.14,-34.45 94.41,-11.59c16.97,13.26 25.85,33.06 25.85,53.04c0,14.47 -4.65,29.05 -14.26,41.34zm304.31,-390.7l-179.56,229.8c-9.87,12.64 -23.37,20.79 -37.87,24.13c-19.07,4.38 -39.89,0.46 -56.51,-12.53c-29.26,-22.86 -34.45,-65.12 -11.59,-94.38l68.1,-87.14l111.46,-142.66c22.86,-29.26 65.12,-34.45 94.38,-11.59c16.97,13.26 25.85,33.06 25.85,53.04c0,14.47 -4.65,29.05 -14.26,41.34l0,-0.01z" class="cls-1"/>
    <path fill="#fdba74" d="m1898.88,1551.92001l0,61.86c0,37.14 -30.1,67.24 -67.24,67.24s-67.24,-30.1 -67.24,-67.24l0,-61.86c0,-37.14 30.1,-67.24 67.24,-67.24c18.56,0 35.4,7.53 47.55,19.69c12.16,12.16 19.69,28.99 19.69,47.55z" class="cls-2"/>
   </g>
  </g>
 </g>

</svg>